<mxfile host="app.diagrams.net" modified="2023-07-24T21:11:43.322Z" agent="Mozilla/5.0 (Windows NT 10.0; Win64; x64) AppleWebKit/537.36 (KHTML, like Gecko) Chrome/115.0.0.0 Safari/537.36" etag="mcZRVUPpsqs5IDlYpM7K" version="21.6.5" type="device">
  <diagram name="Página-1" id="wA_mLn8civ_P8sNsjRE1">
    <mxGraphModel dx="880" dy="522" grid="1" gridSize="10" guides="1" tooltips="1" connect="1" arrows="1" fold="1" page="1" pageScale="1" pageWidth="827" pageHeight="1169" math="0" shadow="0">
      <root>
        <mxCell id="0" />
        <mxCell id="1" parent="0" />
        <mxCell id="BVqMognX0KFY0W1Dzrm1-1" value="&lt;font style=&quot;font-size: 13px;&quot;&gt;Loja&lt;/font&gt;" style="rounded=0;whiteSpace=wrap;html=1;" vertex="1" parent="1">
          <mxGeometry x="40" y="240" width="120" height="60" as="geometry" />
        </mxCell>
        <mxCell id="BVqMognX0KFY0W1Dzrm1-2" value="&lt;div style=&quot;font-size: 13px;&quot;&gt;&lt;font style=&quot;font-size: 13px;&quot;&gt;E-Commerce - SenaiShop&lt;/font&gt;&lt;/div&gt;&lt;div style=&quot;font-size: 13px;&quot;&gt;&lt;font style=&quot;font-size: 13px;&quot;&gt;&lt;br&gt;&lt;/font&gt;&lt;/div&gt;&lt;div style=&quot;font-size: 13px;&quot;&gt;&lt;font style=&quot;font-size: 13px;&quot;&gt;Uma Loja possui várias categorias&lt;/font&gt;&lt;/div&gt;&lt;div style=&quot;font-size: 13px;&quot;&gt;&lt;font style=&quot;font-size: 13px;&quot;&gt;Uma categoria possui subcategorias&lt;/font&gt;&lt;/div&gt;&lt;div style=&quot;font-size: 13px;&quot;&gt;&lt;font style=&quot;font-size: 13px;&quot;&gt;Um produto possui uma subcategoria&lt;/font&gt;&lt;/div&gt;&lt;div style=&quot;font-size: 13px;&quot;&gt;&lt;font style=&quot;font-size: 13px;&quot;&gt;Um cliente efetua um pedido&lt;/font&gt;&lt;/div&gt;&lt;div style=&quot;font-size: 13px;&quot;&gt;&lt;font style=&quot;font-size: 13px;&quot;&gt;Um pedido pode ter 1 ou vários produtos&lt;/font&gt;&lt;/div&gt;" style="text;html=1;align=left;verticalAlign=middle;resizable=0;points=[];autosize=1;strokeColor=none;fillColor=none;" vertex="1" parent="1">
          <mxGeometry x="250" y="23" width="260" height="120" as="geometry" />
        </mxCell>
        <mxCell id="BVqMognX0KFY0W1Dzrm1-3" value="&lt;font style=&quot;font-size: 13px;&quot;&gt;Categoria&lt;/font&gt;" style="rounded=0;whiteSpace=wrap;html=1;" vertex="1" parent="1">
          <mxGeometry x="340" y="240" width="120" height="60" as="geometry" />
        </mxCell>
        <mxCell id="BVqMognX0KFY0W1Dzrm1-14" style="edgeStyle=orthogonalEdgeStyle;rounded=0;orthogonalLoop=1;jettySize=auto;html=1;entryX=1;entryY=0.5;entryDx=0;entryDy=0;endArrow=none;endFill=0;" edge="1" parent="1" source="BVqMognX0KFY0W1Dzrm1-4" target="BVqMognX0KFY0W1Dzrm1-8">
          <mxGeometry relative="1" as="geometry" />
        </mxCell>
        <mxCell id="BVqMognX0KFY0W1Dzrm1-4" value="&lt;font style=&quot;font-size: 13px;&quot;&gt;Subcategoria&lt;/font&gt;" style="rounded=0;whiteSpace=wrap;html=1;" vertex="1" parent="1">
          <mxGeometry x="640" y="240" width="120" height="60" as="geometry" />
        </mxCell>
        <mxCell id="BVqMognX0KFY0W1Dzrm1-17" style="edgeStyle=orthogonalEdgeStyle;rounded=0;orthogonalLoop=1;jettySize=auto;html=1;endArrow=none;endFill=0;" edge="1" parent="1" source="BVqMognX0KFY0W1Dzrm1-5" target="BVqMognX0KFY0W1Dzrm1-9">
          <mxGeometry relative="1" as="geometry" />
        </mxCell>
        <mxCell id="BVqMognX0KFY0W1Dzrm1-5" value="&lt;font style=&quot;font-size: 13px;&quot;&gt;Produto&lt;/font&gt;" style="rounded=0;whiteSpace=wrap;html=1;" vertex="1" parent="1">
          <mxGeometry x="640" y="415" width="120" height="60" as="geometry" />
        </mxCell>
        <mxCell id="BVqMognX0KFY0W1Dzrm1-6" value="&lt;font style=&quot;font-size: 13px;&quot;&gt;Pedido&lt;/font&gt;" style="rounded=0;whiteSpace=wrap;html=1;" vertex="1" parent="1">
          <mxGeometry x="340" y="415" width="120" height="60" as="geometry" />
        </mxCell>
        <mxCell id="BVqMognX0KFY0W1Dzrm1-11" style="edgeStyle=orthogonalEdgeStyle;rounded=0;orthogonalLoop=1;jettySize=auto;html=1;entryX=1;entryY=0.5;entryDx=0;entryDy=0;endArrow=none;endFill=0;" edge="1" parent="1" source="BVqMognX0KFY0W1Dzrm1-7" target="BVqMognX0KFY0W1Dzrm1-1">
          <mxGeometry relative="1" as="geometry" />
        </mxCell>
        <mxCell id="BVqMognX0KFY0W1Dzrm1-12" style="edgeStyle=orthogonalEdgeStyle;rounded=0;orthogonalLoop=1;jettySize=auto;html=1;entryX=0;entryY=0.5;entryDx=0;entryDy=0;endArrow=none;endFill=0;" edge="1" parent="1" source="BVqMognX0KFY0W1Dzrm1-7" target="BVqMognX0KFY0W1Dzrm1-3">
          <mxGeometry relative="1" as="geometry" />
        </mxCell>
        <mxCell id="BVqMognX0KFY0W1Dzrm1-7" value="&lt;font style=&quot;font-size: 13px;&quot;&gt;Possui&lt;/font&gt;" style="rhombus;whiteSpace=wrap;html=1;" vertex="1" parent="1">
          <mxGeometry x="210" y="235" width="70" height="70" as="geometry" />
        </mxCell>
        <mxCell id="BVqMognX0KFY0W1Dzrm1-13" style="edgeStyle=orthogonalEdgeStyle;rounded=0;orthogonalLoop=1;jettySize=auto;html=1;entryX=1;entryY=0.5;entryDx=0;entryDy=0;endArrow=none;endFill=0;" edge="1" parent="1" source="BVqMognX0KFY0W1Dzrm1-8" target="BVqMognX0KFY0W1Dzrm1-3">
          <mxGeometry relative="1" as="geometry" />
        </mxCell>
        <mxCell id="BVqMognX0KFY0W1Dzrm1-8" value="&lt;font style=&quot;font-size: 13px;&quot;&gt;Possui&lt;/font&gt;" style="rhombus;whiteSpace=wrap;html=1;" vertex="1" parent="1">
          <mxGeometry x="520" y="235" width="70" height="70" as="geometry" />
        </mxCell>
        <mxCell id="BVqMognX0KFY0W1Dzrm1-18" style="edgeStyle=orthogonalEdgeStyle;rounded=0;orthogonalLoop=1;jettySize=auto;html=1;exitX=0;exitY=0.5;exitDx=0;exitDy=0;entryX=1;entryY=0.5;entryDx=0;entryDy=0;endArrow=none;endFill=0;" edge="1" parent="1" source="BVqMognX0KFY0W1Dzrm1-9" target="BVqMognX0KFY0W1Dzrm1-6">
          <mxGeometry relative="1" as="geometry" />
        </mxCell>
        <mxCell id="BVqMognX0KFY0W1Dzrm1-9" value="&lt;font style=&quot;font-size: 13px;&quot;&gt;Possui&lt;/font&gt;" style="rhombus;whiteSpace=wrap;html=1;" vertex="1" parent="1">
          <mxGeometry x="520" y="410" width="70" height="70" as="geometry" />
        </mxCell>
        <mxCell id="BVqMognX0KFY0W1Dzrm1-15" style="edgeStyle=orthogonalEdgeStyle;rounded=0;orthogonalLoop=1;jettySize=auto;html=1;exitX=0.5;exitY=0;exitDx=0;exitDy=0;entryX=0.5;entryY=1;entryDx=0;entryDy=0;endArrow=none;endFill=0;" edge="1" parent="1" source="BVqMognX0KFY0W1Dzrm1-10" target="BVqMognX0KFY0W1Dzrm1-4">
          <mxGeometry relative="1" as="geometry" />
        </mxCell>
        <mxCell id="BVqMognX0KFY0W1Dzrm1-16" style="edgeStyle=orthogonalEdgeStyle;rounded=0;orthogonalLoop=1;jettySize=auto;html=1;exitX=0.5;exitY=1;exitDx=0;exitDy=0;entryX=0.5;entryY=0;entryDx=0;entryDy=0;endArrow=none;endFill=0;" edge="1" parent="1" source="BVqMognX0KFY0W1Dzrm1-10" target="BVqMognX0KFY0W1Dzrm1-5">
          <mxGeometry relative="1" as="geometry" />
        </mxCell>
        <mxCell id="BVqMognX0KFY0W1Dzrm1-10" value="&lt;font style=&quot;font-size: 13px;&quot;&gt;Possui&lt;/font&gt;" style="rhombus;whiteSpace=wrap;html=1;" vertex="1" parent="1">
          <mxGeometry x="665" y="320" width="70" height="70" as="geometry" />
        </mxCell>
        <mxCell id="BVqMognX0KFY0W1Dzrm1-19" value="&lt;font style=&quot;font-size: 13px;&quot;&gt;1&lt;/font&gt;" style="text;html=1;align=center;verticalAlign=middle;resizable=0;points=[];autosize=1;strokeColor=none;fillColor=none;" vertex="1" parent="1">
          <mxGeometry x="470" y="410" width="30" height="30" as="geometry" />
        </mxCell>
        <mxCell id="BVqMognX0KFY0W1Dzrm1-20" value="&lt;span style=&quot;font-size: 13px;&quot;&gt;N&lt;/span&gt;" style="text;html=1;align=center;verticalAlign=middle;resizable=0;points=[];autosize=1;strokeColor=none;fillColor=none;" vertex="1" parent="1">
          <mxGeometry x="600" y="410" width="30" height="30" as="geometry" />
        </mxCell>
        <mxCell id="BVqMognX0KFY0W1Dzrm1-21" value="&lt;font style=&quot;font-size: 13px;&quot;&gt;1&lt;/font&gt;" style="text;html=1;align=center;verticalAlign=middle;resizable=0;points=[];autosize=1;strokeColor=none;fillColor=none;" vertex="1" parent="1">
          <mxGeometry x="710" y="380" width="30" height="30" as="geometry" />
        </mxCell>
        <mxCell id="BVqMognX0KFY0W1Dzrm1-22" value="&lt;span style=&quot;font-size: 13px;&quot;&gt;N&lt;/span&gt;" style="text;html=1;align=center;verticalAlign=middle;resizable=0;points=[];autosize=1;strokeColor=none;fillColor=none;" vertex="1" parent="1">
          <mxGeometry x="300" y="235" width="30" height="30" as="geometry" />
        </mxCell>
        <mxCell id="BVqMognX0KFY0W1Dzrm1-23" value="&lt;font style=&quot;font-size: 13px;&quot;&gt;1&lt;/font&gt;" style="text;html=1;align=center;verticalAlign=middle;resizable=0;points=[];autosize=1;strokeColor=none;fillColor=none;" vertex="1" parent="1">
          <mxGeometry x="170" y="235" width="30" height="30" as="geometry" />
        </mxCell>
        <mxCell id="BVqMognX0KFY0W1Dzrm1-24" value="&lt;font style=&quot;font-size: 13px;&quot;&gt;1&lt;/font&gt;" style="text;html=1;align=center;verticalAlign=middle;resizable=0;points=[];autosize=1;strokeColor=none;fillColor=none;" vertex="1" parent="1">
          <mxGeometry x="470" y="235" width="30" height="30" as="geometry" />
        </mxCell>
        <mxCell id="BVqMognX0KFY0W1Dzrm1-25" value="&lt;span style=&quot;font-size: 13px;&quot;&gt;N&lt;/span&gt;" style="text;html=1;align=center;verticalAlign=middle;resizable=0;points=[];autosize=1;strokeColor=none;fillColor=none;" vertex="1" parent="1">
          <mxGeometry x="600" y="235" width="30" height="30" as="geometry" />
        </mxCell>
        <mxCell id="BVqMognX0KFY0W1Dzrm1-26" value="&lt;font style=&quot;font-size: 13px;&quot;&gt;1&lt;/font&gt;" style="text;html=1;align=center;verticalAlign=middle;resizable=0;points=[];autosize=1;strokeColor=none;fillColor=none;" vertex="1" parent="1">
          <mxGeometry x="710" y="305" width="30" height="30" as="geometry" />
        </mxCell>
      </root>
    </mxGraphModel>
  </diagram>
</mxfile>
